<svg id="SvgjsSvg1001" width="288" height="288" xmlns="http://www.w3.org/2000/svg" version="1.1" xmlns:xlink="http://www.w3.org/1999/xlink" xmlns:svgjs="http://svgjs.com/svgjs"><defs id="SvgjsDefs1002"></defs><g id="SvgjsG1008"><svg xmlns="http://www.w3.org/2000/svg" width="288" height="288" enable-background="new 0 0 351.128 351.128" viewBox="0 0 351.128 351.128"><path d="M72.326 147.33c4.284-26.928 37.944-55.692 64.26-56.304 1.836 0 3.672-.612 4.896-1.836 1.224-.612 2.448-1.224 3.06-3.06 9.18-17.136 4.284-30.6-11.016-41.616-17.748-12.852-45.9 0-59.976 11.628C38.054 85.518 1.946 136.313 3.782 184.662c-6.12 32.437-4.896 67.32 4.284 96.084 6.12 18.36 23.868 27.54 42.228 28.764 18.36 1.225 56.304 6.732 72.828-4.283 16.524-11.017 17.748-32.437 19.584-50.796 1.836-20.196 7.344-58.141-9.792-74.053C115.778 165.078 66.818 181.602 72.326 147.33zM274.286 147.33c4.284-26.928 37.943-55.692 64.26-56.304 1.836 0 3.672-.612 4.896-1.836 1.225-.612 2.448-1.224 3.061-3.06 9.18-17.136 4.284-30.6-11.016-41.616-17.748-12.852-45.9 0-59.977 11.628-35.496 29.376-71.604 80.172-69.768 128.52-6.12 32.437-4.896 67.32 4.283 96.084 6.12 18.36 23.868 27.54 42.229 28.764 18.36 1.225 56.304 6.732 72.828-4.283 16.523-11.017 17.748-32.437 19.584-50.796 1.836-20.196 7.344-58.141-9.792-74.053C317.738 165.078 268.166 181.602 274.286 147.33z" fill="#fba800" class="color000 svgShape"></path></svg></g></svg>